ffmpeg started on 2026-01-19 at 12:06:41
Report written to "D:\Convert\FFMetrics\reports\psnr_report-6.txt"
Log level: 32
Command line:
ffmpeg -hide_banner -nostdin -r 24000/1001 -i "F:\\Convert\\files\\[DC] Make Heroine ga Oosugiru - 07_Telegram_HEVC(173).mkv" -r 24000/1001 -i "F:\\Convert\\files\\[DC] Make Heroine ga Oosugiru - 07_Telegram.mp4" -lavfi "[0:v]settb=AVTB,setpts=PTS-STARTPTS,format=pix_fmts=yuv420p10le,fps=24000/1001,scale=1920:1080:flags=lanczos:param0=3:out_range=limited:out_color_matrix=bt709:out_chroma_loc=left,setsar=1/1,setdar=(1920/1080)*(1/1),colorspace=format=yuv420p10:range=tv:primaries=bt709:trc=bt709:space=bt709:fast=0[main];[1:v]settb=AVTB,setpts=PTS-STARTPTS,format=pix_fmts=yuv420p,fps=24000/1001,scale=1920:1080:flags=lanczos:param0=3:out_range=limited:out_color_matrix=bt709:out_chroma_loc=left,setsar=1.000,setdar=1.778,colorspace=format=yuv420p:range=tv:primaries=bt709:trc=bt709:space=bt709:fast=0[ref];[main][ref]psnr=eof_action=endall:stats_file='D\\:/Convert/FFMetrics/logs/psnr_logfile-6.txt'" -f null -
Input #0, matroska,webm, from 'F:\Convert\files\[DC] Make Heroine ga Oosugiru - 07_Telegram_HEVC(173).mkv':
  Metadata:
    COMPATIBLE_BRANDS: isomiso2avc1mp41
    MAJOR_BRAND     : isom
    MINOR_VERSION   : 512
    ENCODER         : Lavf61.7.100
  Duration: 00:24:06.79, start: -0.021000, bitrate: 980 kb/s
  Stream #0:0: Video: hevc (Main 10), yuv420p10le(tv, bt709, progressive), 1920x1080 [SAR 1:1 DAR 16:9], 23.98 fps, 23.98 tbr, 1k tbn (default)
      Metadata:
        HANDLER_NAME    : VideoHandler
        VENDOR_ID       : [0][0][0][0]
        ENCODER         : Lavc61.19.100 libx265
        BPS             : 783837
        DURATION        : 00:24:06.569708333
        NUMBER_OF_FRAMES: 34683
        NUMBER_OF_BYTES : 141734386
        _STATISTICS_WRITING_APP: mkvpropedit v94.0 ('Initiate') 64-bit
        _STATISTICS_WRITING_DATE_UTC: 2026-01-19 07:27:00
        _STATISTICS_TAGS: BPS DURATION NUMBER_OF_FRAMES NUMBER_OF_BYTES
  Stream #0:1: Audio: aac (LC), 48000 Hz, stereo, fltp (default)
      Metadata:
        HANDLER_NAME    : SoundHandler
        VENDOR_ID       : [0][0][0][0]
        ENCODER         : Lavc61.19.100 aac
        BPS             : 193194
        DURATION        : 00:24:06.784000000
        NUMBER_OF_FRAMES: 67819
        NUMBER_OF_BYTES : 34938755
        _STATISTICS_WRITING_APP: mkvpropedit v94.0 ('Initiate') 64-bit
        _STATISTICS_WRITING_DATE_UTC: 2026-01-19 07:27:00
        _STATISTICS_TAGS: BPS DURATION NUMBER_OF_FRAMES NUMBER_OF_BYTES
Input #1, mov,mp4,m4a,3gp,3g2,mj2, from 'F:\Convert\files\[DC] Make Heroine ga Oosugiru - 07_Telegram.mp4':
  Metadata:
    major_brand     : isom
    minor_version   : 512
    compatible_brands: isomiso2avc1mp41
    encoder         : Lavf60.16.100
  Duration: 00:24:06.74, start: 0.000000, bitrate: 3764 kb/s
  Stream #1:0[0x1](und): Video: h264 (High) (avc1 / 0x31637661), yuv420p(tv, bt709, progressive), 1920x1080 [SAR 1:1 DAR 16:9], 3616 kb/s, 23.98 fps, 23.98 tbr, 24k tbn (default)
      Metadata:
        handler_name    : VideoHandler
        vendor_id       : [0][0][0][0]
        encoder         : Lavc60.31.102 h264_qsv
  Stream #1:1[0x2](und): Audio: aac (HE-AACv2) (mp4a / 0x6134706D), 48000 Hz, stereo, fltp, 144 kb/s (default)
      Metadata:
        handler_name    : SoundHandler
        vendor_id       : [0][0][0][0]
Stream mapping:
  Stream #0:0 (hevc) -> settb:default
  Stream #1:0 (h264) -> settb:default
  psnr:default -> Stream #0:0 (wrapped_avframe)
  Stream #0:1 -> #0:1 (aac (native) -> pcm_s16le (native))
Output #0, null, to 'pipe:':
  Metadata:
    COMPATIBLE_BRANDS: isomiso2avc1mp41
    MAJOR_BRAND     : isom
    MINOR_VERSION   : 512
    encoder         : Lavf61.7.100
  Stream #0:0: Video: wrapped_avframe, yuv420p10le(tv, bt709, progressive), 1920x1080 [SAR 1:1 DAR 16:9], q=2-31, 200 kb/s, 23.98 fps, 23.98 tbn
      Metadata:
        encoder         : Lavc61.19.100 wrapped_avframe
  Stream #0:1: Audio: pcm_s16le, 48000 Hz, stereo, s16, 1536 kb/s (default)
      Metadata:
        HANDLER_NAME    : SoundHandler
        VENDOR_ID       : [0][0][0][0]
        _STATISTICS_TAGS: BPS DURATION NUMBER_OF_FRAMES NUMBER_OF_BYTES
        BPS             : 193194
        DURATION        : 00:24:06.784000000
        NUMBER_OF_FRAMES: 67819
        NUMBER_OF_BYTES : 34938755
        _STATISTICS_WRITING_APP: mkvpropedit v94.0 ('Initiate') 64-bit
        _STATISTICS_WRITING_DATE_UTC: 2026-01-19 07:27:00
        encoder         : Lavc61.19.100 pcm_s16le
frame=  125 fps=0.0 q=-0.0 size=N/A time=00:00:05.21 bitrate=N/A speed=10.1x    frame=  329 fps=320 q=-0.0 size=N/A time=00:00:13.72 bitrate=N/A speed=13.3x    frame=  533 fps=346 q=-0.0 size=N/A time=00:00:22.23 bitrate=N/A speed=14.4x    frame=  747 fps=361 q=-0.0 size=N/A time=00:00:31.15 bitrate=N/A speed=15.1x    frame=  922 fps=358 q=-0.0 size=N/A time=00:00:38.45 bitrate=N/A speed=14.9x    frame= 1068 fps=346 q=-0.0 size=N/A time=00:00:44.54 bitrate=N/A speed=14.4x    frame= 1231 fps=341 q=-0.0 size=N/A time=00:00:51.34 bitrate=N/A speed=14.2x    frame= 1400 fps=339 q=-0.0 size=N/A time=00:00:58.39 bitrate=N/A speed=14.2x    frame= 1544 fps=333 q=-0.0 size=N/A time=00:01:04.39 bitrate=N/A speed=13.9x    frame= 1702 fps=330 q=-0.0 size=N/A time=00:01:10.98 bitrate=N/A speed=13.8x    frame= 1862 fps=328 q=-0.0 size=N/A time=00:01:17.66 bitrate=N/A speed=13.7x    frame= 2032 fps=329 q=-0.0 size=N/A time=00:01:24.75 bitrate=N/A speed=13.7x    frame= 2140 fps=319 q=-0.0 size=N/A time=00:01:29.25 bitrate=N/A speed=13.3x    frame= 2295 fps=318 q=-0.0 size=N/A time=00:01:35.72 bitrate=N/A speed=13.3x    frame= 2444 fps=316 q=-0.0 size=N/A time=00:01:41.93 bitrate=N/A speed=13.2x    frame= 2577 fps=313 q=-0.0 size=N/A time=00:01:47.48 bitrate=N/A speed=  13x    frame= 2759 fps=315 q=-0.0 size=N/A time=00:01:55.07 bitrate=N/A speed=13.1x    frame= 2927 fps=316 q=-0.0 size=N/A time=00:02:02.08 bitrate=N/A speed=13.2x    frame= 3128 fps=320 q=-0.0 size=N/A time=00:02:10.46 bitrate=N/A speed=13.3x    frame= 3336 fps=323 q=-0.0 size=N/A time=00:02:19.13 bitrate=N/A speed=13.5x    frame= 3539 fps=327 q=-0.0 size=N/A time=00:02:27.60 bitrate=N/A speed=13.6x    frame= 3743 fps=330 q=-0.0 size=N/A time=00:02:36.11 bitrate=N/A speed=13.8x    frame= 3951 fps=333 q=-0.0 size=N/A time=00:02:44.78 bitrate=N/A speed=13.9x    frame= 4161 fps=336 q=-0.0 size=N/A time=00:02:53.54 bitrate=N/A speed=  14x    frame= 4368 fps=339 q=-0.0 size=N/A time=00:03:02.18 bitrate=N/A speed=14.1x    frame= 4573 fps=341 q=-0.0 size=N/A time=00:03:10.73 bitrate=N/A speed=14.2x    frame= 4783 fps=343 q=-0.0 size=N/A time=00:03:19.49 bitrate=N/A speed=14.3x    frame= 4991 fps=346 q=-0.0 size=N/A time=00:03:28.16 bitrate=N/A speed=14.4x    frame= 5190 fps=347 q=-0.0 size=N/A time=00:03:36.46 bitrate=N/A speed=14.5x    frame= 5394 fps=349 q=-0.0 size=N/A time=00:03:44.97 bitrate=N/A speed=14.6x    frame= 5601 fps=350 q=-0.0 size=N/A time=00:03:53.60 bitrate=N/A speed=14.6x    frame= 5792 fps=351 q=-0.0 size=N/A time=00:04:01.57 bitrate=N/A speed=14.6x    frame= 5993 fps=352 q=-0.0 size=N/A time=00:04:09.95 bitrate=N/A speed=14.7x    frame= 6199 fps=353 q=-0.0 size=N/A time=00:04:18.54 bitrate=N/A speed=14.7x    frame= 6400 fps=355 q=-0.0 size=N/A time=00:04:26.93 bitrate=N/A speed=14.8x    frame= 6601 fps=356 q=-0.0 size=N/A time=00:04:35.31 bitrate=N/A speed=14.8x    frame= 6801 fps=356 q=-0.0 size=N/A time=00:04:43.65 bitrate=N/A speed=14.9x    frame= 7000 fps=357 q=-0.0 size=N/A time=00:04:51.95 bitrate=N/A speed=14.9x    frame= 7181 fps=357 q=-0.0 size=N/A time=00:04:59.50 bitrate=N/A speed=14.9x    frame= 7383 fps=358 q=-0.0 size=N/A time=00:05:07.93 bitrate=N/A speed=14.9x    frame= 7574 fps=358 q=-0.0 size=N/A time=00:05:15.89 bitrate=N/A speed=14.9x    frame= 7752 fps=358 q=-0.0 size=N/A time=00:05:23.32 bitrate=N/A speed=14.9x    frame= 7949 fps=359 q=-0.0 size=N/A time=00:05:31.53 bitrate=N/A speed=  15x    frame= 8151 fps=359 q=-0.0 size=N/A time=00:05:39.96 bitrate=N/A speed=  15x    frame= 8346 fps=360 q=-0.0 size=N/A time=00:05:48.09 bitrate=N/A speed=  15x    frame= 8543 fps=360 q=-0.0 size=N/A time=00:05:56.31 bitrate=N/A speed=  15x    frame= 8742 fps=361 q=-0.0 size=N/A time=00:06:04.61 bitrate=N/A speed=15.1x    frame= 8949 fps=362 q=-0.0 size=N/A time=00:06:13.24 bitrate=N/A speed=15.1x    frame= 9153 fps=362 q=-0.0 size=N/A time=00:06:21.75 bitrate=N/A speed=15.1x    frame= 9351 fps=363 q=-0.0 size=N/A time=00:06:30.01 bitrate=N/A speed=15.1x    frame= 9559 fps=363 q=-0.0 size=N/A time=00:06:38.68 bitrate=N/A speed=15.2x    frame= 9760 fps=364 q=-0.0 size=N/A time=00:06:47.07 bitrate=N/A speed=15.2x    frame= 9960 fps=365 q=-0.0 size=N/A time=00:06:55.41 bitrate=N/A speed=15.2x    frame=10168 fps=365 q=-0.0 size=N/A time=00:07:04.09 bitrate=N/A speed=15.2x    frame=10360 fps=365 q=-0.0 size=N/A time=00:07:12.09 bitrate=N/A speed=15.2x    frame=10561 fps=366 q=-0.0 size=N/A time=00:07:20.48 bitrate=N/A speed=15.3x    frame=10758 fps=366 q=-0.0 size=N/A time=00:07:28.69 bitrate=N/A speed=15.3x    frame=10957 fps=366 q=-0.0 size=N/A time=00:07:36.99 bitrate=N/A speed=15.3x    frame=11154 fps=366 q=-0.0 size=N/A time=00:07:45.21 bitrate=N/A speed=15.3x    frame=11352 fps=367 q=-0.0 size=N/A time=00:07:53.47 bitrate=N/A speed=15.3x    frame=11552 fps=367 q=-0.0 size=N/A time=00:08:01.81 bitrate=N/A speed=15.3x    frame=11751 fps=367 q=-0.0 size=N/A time=00:08:10.11 bitrate=N/A speed=15.3x    frame=11951 fps=368 q=-0.0 size=N/A time=00:08:18.45 bitrate=N/A speed=15.3x    frame=12152 fps=368 q=-0.0 size=N/A time=00:08:26.83 bitrate=N/A speed=15.3x    frame=12349 fps=368 q=-0.0 size=N/A time=00:08:35.05 bitrate=N/A speed=15.4x    frame=12550 fps=369 q=-0.0 size=N/A time=00:08:43.43 bitrate=N/A speed=15.4x    frame=12751 fps=369 q=-0.0 size=N/A time=00:08:51.82 bitrate=N/A speed=15.4x    frame=12953 fps=369 q=-0.0 size=N/A time=00:09:00.24 bitrate=N/A speed=15.4x    frame=13152 fps=370 q=-0.0 size=N/A time=00:09:08.54 bitrate=N/A speed=15.4x    frame=13332 fps=369 q=-0.0 size=N/A time=00:09:16.05 bitrate=N/A speed=15.4x    frame=13525 fps=369 q=-0.0 size=N/A time=00:09:24.10 bitrate=N/A speed=15.4x    frame=13728 fps=370 q=-0.0 size=N/A time=00:09:32.57 bitrate=N/A speed=15.4x    frame=13922 fps=370 q=-0.0 size=N/A time=00:09:40.66 bitrate=N/A speed=15.4x    frame=14103 fps=370 q=-0.0 size=N/A time=00:09:48.21 bitrate=N/A speed=15.4x    frame=14292 fps=369 q=-0.0 size=N/A time=00:09:56.09 bitrate=N/A speed=15.4x    frame=14489 fps=370 q=-0.0 size=N/A time=00:10:04.31 bitrate=N/A speed=15.4x    frame=14679 fps=370 q=-0.0 size=N/A time=00:10:12.23 bitrate=N/A speed=15.4x    frame=14874 fps=370 q=-0.0 size=N/A time=00:10:20.36 bitrate=N/A speed=15.4x    frame=15061 fps=370 q=-0.0 size=N/A time=00:10:28.16 bitrate=N/A speed=15.4x    frame=15221 fps=369 q=-0.0 size=N/A time=00:10:34.84 bitrate=N/A speed=15.4x    frame=15410 fps=369 q=-0.0 size=N/A time=00:10:42.72 bitrate=N/A speed=15.4x    frame=15611 fps=369 q=-0.0 size=N/A time=00:10:51.10 bitrate=N/A speed=15.4x    frame=15801 fps=369 q=-0.0 size=N/A time=00:10:59.03 bitrate=N/A speed=15.4x    frame=15989 fps=369 q=-0.0 size=N/A time=00:11:06.87 bitrate=N/A speed=15.4x    frame=16198 fps=369 q=-0.0 size=N/A time=00:11:15.59 bitrate=N/A speed=15.4x    frame=16396 fps=369 q=-0.0 size=N/A time=00:11:23.84 bitrate=N/A speed=15.4x    frame=16585 fps=369 q=-0.0 size=N/A time=00:11:31.73 bitrate=N/A speed=15.4x    frame=16781 fps=370 q=-0.0 size=N/A time=00:11:39.90 bitrate=N/A speed=15.4x    frame=16982 fps=370 q=-0.0 size=N/A time=00:11:48.29 bitrate=N/A speed=15.4x    frame=17190 fps=370 q=-0.0 size=N/A time=00:11:56.96 bitrate=N/A speed=15.4x    frame=17389 fps=370 q=-0.0 size=N/A time=00:12:05.26 bitrate=N/A speed=15.4x    frame=17578 fps=370 q=-0.0 size=N/A time=00:12:13.14 bitrate=N/A speed=15.4x    frame=17769 fps=370 q=-0.0 size=N/A time=00:12:21.11 bitrate=N/A speed=15.4x    frame=17978 fps=371 q=-0.0 size=N/A time=00:12:29.83 bitrate=N/A speed=15.5x    frame=18170 fps=371 q=-0.0 size=N/A time=00:12:37.84 bitrate=N/A speed=15.5x    frame=18357 fps=371 q=-0.0 size=N/A time=00:12:45.63 bitrate=N/A speed=15.5x    frame=18563 fps=371 q=-0.0 size=N/A time=00:12:54.23 bitrate=N/A speed=15.5x    frame=18758 fps=371 q=-0.0 size=N/A time=00:13:02.36 bitrate=N/A speed=15.5x    frame=18948 fps=371 q=-0.0 size=N/A time=00:13:10.28 bitrate=N/A speed=15.5x    frame=19159 fps=371 q=-0.0 size=N/A time=00:13:19.08 bitrate=N/A speed=15.5x    frame=19361 fps=372 q=-0.0 size=N/A time=00:13:27.51 bitrate=N/A speed=15.5x    frame=19564 fps=372 q=-0.0 size=N/A time=00:13:35.98 bitrate=N/A speed=15.5x    frame=19776 fps=372 q=-0.0 size=N/A time=00:13:44.82 bitrate=N/A speed=15.5x    frame=19978 fps=372 q=-0.0 size=N/A time=00:13:53.24 bitrate=N/A speed=15.5x    frame=20184 fps=373 q=-0.0 size=N/A time=00:14:01.84 bitrate=N/A speed=15.5x    frame=20390 fps=373 q=-0.0 size=N/A time=00:14:10.43 bitrate=N/A speed=15.5x    frame=20580 fps=373 q=-0.0 size=N/A time=00:14:18.35 bitrate=N/A speed=15.5x    frame=20778 fps=373 q=-0.0 size=N/A time=00:14:26.61 bitrate=N/A speed=15.6x    frame=20989 fps=373 q=-0.0 size=N/A time=00:14:35.41 bitrate=N/A speed=15.6x    frame=21191 fps=373 q=-0.0 size=N/A time=00:14:43.84 bitrate=N/A speed=15.6x    frame=21383 fps=373 q=-0.0 size=N/A time=00:14:51.84 bitrate=N/A speed=15.6x    frame=21589 fps=374 q=-0.0 size=N/A time=00:15:00.44 bitrate=N/A speed=15.6x    frame=21796 fps=374 q=-0.0 size=N/A time=00:15:09.07 bitrate=N/A speed=15.6x    frame=21995 fps=374 q=-0.0 size=N/A time=00:15:17.37 bitrate=N/A speed=15.6x    frame=22198 fps=374 q=-0.0 size=N/A time=00:15:25.84 bitrate=N/A speed=15.6x    frame=22412 fps=374 q=-0.0 size=N/A time=00:15:34.76 bitrate=N/A speed=15.6x    frame=22605 fps=374 q=-0.0 size=N/A time=00:15:42.81 bitrate=N/A speed=15.6x    frame=22781 fps=374 q=-0.0 size=N/A time=00:15:50.15 bitrate=N/A speed=15.6x    frame=22983 fps=374 q=-0.0 size=N/A time=00:15:58.58 bitrate=N/A speed=15.6x    frame=23175 fps=374 q=-0.0 size=N/A time=00:16:06.59 bitrate=N/A speed=15.6x    frame=23382 fps=375 q=-0.0 size=N/A time=00:16:15.22 bitrate=N/A speed=15.6x    frame=23574 fps=375 q=-0.0 size=N/A time=00:16:23.23 bitrate=N/A speed=15.6x    frame=23787 fps=375 q=-0.0 size=N/A time=00:16:32.11 bitrate=N/A speed=15.6x    frame=23986 fps=375 q=-0.0 size=N/A time=00:16:40.41 bitrate=N/A speed=15.6x    frame=24177 fps=375 q=-0.0 size=N/A time=00:16:48.38 bitrate=N/A speed=15.6x    frame=24384 fps=375 q=-0.0 size=N/A time=00:16:57.01 bitrate=N/A speed=15.6x    frame=24585 fps=375 q=-0.0 size=N/A time=00:17:05.39 bitrate=N/A speed=15.6x    frame=24788 fps=375 q=-0.0 size=N/A time=00:17:13.86 bitrate=N/A speed=15.7x    frame=24993 fps=375 q=-0.0 size=N/A time=00:17:22.41 bitrate=N/A speed=15.7x    frame=25203 fps=376 q=-0.0 size=N/A time=00:17:31.17 bitrate=N/A speed=15.7x    frame=25404 fps=376 q=-0.0 size=N/A time=00:17:39.55 bitrate=N/A speed=15.7x    frame=25612 fps=376 q=-0.0 size=N/A time=00:17:48.23 bitrate=N/A speed=15.7x    frame=25812 fps=376 q=-0.0 size=N/A time=00:17:56.57 bitrate=N/A speed=15.7x    frame=26018 fps=376 q=-0.0 size=N/A time=00:18:05.16 bitrate=N/A speed=15.7x    frame=26217 fps=376 q=-0.0 size=N/A time=00:18:13.46 bitrate=N/A speed=15.7x    frame=26422 fps=377 q=-0.0 size=N/A time=00:18:22.01 bitrate=N/A speed=15.7x    frame=26620 fps=377 q=-0.0 size=N/A time=00:18:30.27 bitrate=N/A speed=15.7x    frame=26816 fps=377 q=-0.0 size=N/A time=00:18:38.45 bitrate=N/A speed=15.7x    frame=27003 fps=377 q=-0.0 size=N/A time=00:18:46.25 bitrate=N/A speed=15.7x    frame=27184 fps=376 q=-0.0 size=N/A time=00:18:53.79 bitrate=N/A speed=15.7x    frame=27376 fps=376 q=-0.0 size=N/A time=00:19:01.80 bitrate=N/A speed=15.7x    frame=27575 fps=376 q=-0.0 size=N/A time=00:19:10.10 bitrate=N/A speed=15.7x    frame=27769 fps=376 q=-0.0 size=N/A time=00:19:18.19 bitrate=N/A speed=15.7x    frame=27969 fps=376 q=-0.0 size=N/A time=00:19:26.54 bitrate=N/A speed=15.7x    frame=28165 fps=377 q=-0.0 size=N/A time=00:19:34.71 bitrate=N/A speed=15.7x    frame=28368 fps=377 q=-0.0 size=N/A time=00:19:43.18 bitrate=N/A speed=15.7x    frame=28571 fps=377 q=-0.0 size=N/A time=00:19:51.64 bitrate=N/A speed=15.7x    frame=28755 fps=377 q=-0.0 size=N/A time=00:19:59.32 bitrate=N/A speed=15.7x    frame=28932 fps=376 q=-0.0 size=N/A time=00:20:06.70 bitrate=N/A speed=15.7x    frame=29114 fps=376 q=-0.0 size=N/A time=00:20:14.29 bitrate=N/A speed=15.7x    frame=29302 fps=376 q=-0.0 size=N/A time=00:20:22.13 bitrate=N/A speed=15.7x    frame=29478 fps=376 q=-0.0 size=N/A time=00:20:29.47 bitrate=N/A speed=15.7x    frame=29662 fps=376 q=-0.0 size=N/A time=00:20:37.15 bitrate=N/A speed=15.7x    frame=29835 fps=376 q=-0.0 size=N/A time=00:20:44.36 bitrate=N/A speed=15.7x    frame=30002 fps=375 q=-0.0 size=N/A time=00:20:51.33 bitrate=N/A speed=15.6x    frame=30187 fps=375 q=-0.0 size=N/A time=00:20:59.04 bitrate=N/A speed=15.6x    frame=30371 fps=375 q=-0.0 size=N/A time=00:21:06.72 bitrate=N/A speed=15.6x    frame=30580 fps=375 q=-0.0 size=N/A time=00:21:15.44 bitrate=N/A speed=15.6x    frame=30778 fps=375 q=-0.0 size=N/A time=00:21:23.69 bitrate=N/A speed=15.6x    frame=30973 fps=375 q=-0.0 size=N/A time=00:21:31.83 bitrate=N/A speed=15.7x    frame=31170 fps=375 q=-0.0 size=N/A time=00:21:40.04 bitrate=N/A speed=15.7x    frame=31371 fps=375 q=-0.0 size=N/A time=00:21:48.43 bitrate=N/A speed=15.7x    frame=31564 fps=375 q=-0.0 size=N/A time=00:21:56.48 bitrate=N/A speed=15.7x    frame=31760 fps=375 q=-0.0 size=N/A time=00:22:04.65 bitrate=N/A speed=15.7x    frame=31940 fps=375 q=-0.0 size=N/A time=00:22:12.16 bitrate=N/A speed=15.7x    frame=32137 fps=375 q=-0.0 size=N/A time=00:22:20.38 bitrate=N/A speed=15.7x    frame=32336 fps=375 q=-0.0 size=N/A time=00:22:28.68 bitrate=N/A speed=15.7x    frame=32534 fps=375 q=-0.0 size=N/A time=00:22:36.93 bitrate=N/A speed=15.7x    frame=32689 fps=375 q=-0.0 size=N/A time=00:22:43.40 bitrate=N/A speed=15.6x    frame=32845 fps=374 q=-0.0 size=N/A time=00:22:49.91 bitrate=N/A speed=15.6x    frame=33032 fps=374 q=-0.0 size=N/A time=00:22:57.70 bitrate=N/A speed=15.6x    frame=33224 fps=374 q=-0.0 size=N/A time=00:23:05.71 bitrate=N/A speed=15.6x    frame=33406 fps=374 q=-0.0 size=N/A time=00:23:13.30 bitrate=N/A speed=15.6x    frame=33566 fps=374 q=-0.0 size=N/A time=00:23:19.98 bitrate=N/A speed=15.6x    frame=33722 fps=374 q=-0.0 size=N/A time=00:23:26.48 bitrate=N/A speed=15.6x    frame=33843 fps=373 q=-0.0 size=N/A time=00:23:31.53 bitrate=N/A speed=15.5x    frame=33992 fps=372 q=-0.0 size=N/A time=00:23:37.74 bitrate=N/A speed=15.5x    frame=34157 fps=372 q=-0.0 size=N/A time=00:23:44.63 bitrate=N/A speed=15.5x    frame=34308 fps=372 q=-0.0 size=N/A time=00:23:50.92 bitrate=N/A speed=15.5x    frame=34438 fps=371 q=-0.0 size=N/A time=00:23:56.35 bitrate=N/A speed=15.5x    frame=34618 fps=371 q=-0.0 size=N/A time=00:24:03.85 bitrate=N/A speed=15.5x    [Parsed_psnr_16 @ 0000013e8f9272c0] PSNR y:48.950775 u:50.329607 v:50.378843 average:49.370120 min:38.004315 max:inf
[out#0/null @ 0000013e82448a00] video:14903KiB audio:271276KiB subtitle:0KiB other streams:0KiB global headers:0KiB muxing overhead: unknown
frame=34683 fps=371 q=-0.0 Lsize=N/A time=00:24:06.57 bitrate=N/A speed=15.5x    
